<mxfile host="app.diagrams.net" modified="2020-12-09T06:29:05.219Z" agent="5.0 (Macintosh; Intel Mac OS X 10_14_3) AppleWebKit/537.36 (KHTML, like Gecko) Chrome/87.0.4280.88 Safari/537.36" etag="RGiPdP6VNCMsFWsfECmV" version="13.11.0" type="github">
  <diagram id="vvTb4dROSQ4YfpXdLxjG" name="Page-1">
    <mxGraphModel dx="1426" dy="758" grid="1" gridSize="10" guides="1" tooltips="1" connect="1" arrows="1" fold="1" page="1" pageScale="1" pageWidth="850" pageHeight="1100" math="0" shadow="0">
      <root>
        <mxCell id="0" />
        <mxCell id="1" parent="0" />
        <mxCell id="XFDnlzGBObcAwU8t6l0R-1" value="Peggy&#39;s resume&lt;br&gt;&lt;br&gt;" style="rounded=0;whiteSpace=wrap;html=1;" vertex="1" parent="1">
          <mxGeometry x="80" y="150" width="260" height="340" as="geometry" />
        </mxCell>
        <mxCell id="XFDnlzGBObcAwU8t6l0R-2" value="Browser" style="text;html=1;align=center;verticalAlign=middle;resizable=0;points=[];autosize=1;" vertex="1" parent="1">
          <mxGeometry x="170" y="120" width="60" height="20" as="geometry" />
        </mxCell>
        <mxCell id="XFDnlzGBObcAwU8t6l0R-5" style="edgeStyle=orthogonalEdgeStyle;rounded=0;orthogonalLoop=1;jettySize=auto;html=1;exitX=1;exitY=0.5;exitDx=0;exitDy=0;" edge="1" parent="1" source="XFDnlzGBObcAwU8t6l0R-3">
          <mxGeometry relative="1" as="geometry">
            <mxPoint x="390" y="360" as="targetPoint" />
          </mxGeometry>
        </mxCell>
        <mxCell id="XFDnlzGBObcAwU8t6l0R-7" value="redirect" style="edgeLabel;html=1;align=center;verticalAlign=middle;resizable=0;points=[];" vertex="1" connectable="0" parent="XFDnlzGBObcAwU8t6l0R-5">
          <mxGeometry x="-0.2667" y="-1" relative="1" as="geometry">
            <mxPoint as="offset" />
          </mxGeometry>
        </mxCell>
        <mxCell id="XFDnlzGBObcAwU8t6l0R-3" value="leave a message" style="rounded=0;whiteSpace=wrap;html=1;" vertex="1" parent="1">
          <mxGeometry x="150" y="330" width="120" height="60" as="geometry" />
        </mxCell>
        <mxCell id="XFDnlzGBObcAwU8t6l0R-14" style="edgeStyle=orthogonalEdgeStyle;rounded=0;orthogonalLoop=1;jettySize=auto;html=1;exitX=1;exitY=0.5;exitDx=0;exitDy=0;" edge="1" parent="1" source="XFDnlzGBObcAwU8t6l0R-4">
          <mxGeometry relative="1" as="geometry">
            <mxPoint x="380" y="440" as="targetPoint" />
          </mxGeometry>
        </mxCell>
        <mxCell id="XFDnlzGBObcAwU8t6l0R-4" value="visitor dashboard" style="rounded=0;whiteSpace=wrap;html=1;" vertex="1" parent="1">
          <mxGeometry x="150" y="410" width="120" height="60" as="geometry" />
        </mxCell>
        <mxCell id="XFDnlzGBObcAwU8t6l0R-8" style="edgeStyle=orthogonalEdgeStyle;rounded=0;orthogonalLoop=1;jettySize=auto;html=1;exitX=1;exitY=0.5;exitDx=0;exitDy=0;" edge="1" parent="1" source="XFDnlzGBObcAwU8t6l0R-6" target="XFDnlzGBObcAwU8t6l0R-9">
          <mxGeometry relative="1" as="geometry">
            <mxPoint x="570" y="360" as="targetPoint" />
          </mxGeometry>
        </mxCell>
        <mxCell id="XFDnlzGBObcAwU8t6l0R-6" value="message.html" style="rounded=0;whiteSpace=wrap;html=1;" vertex="1" parent="1">
          <mxGeometry x="390" y="330" width="120" height="60" as="geometry" />
        </mxCell>
        <mxCell id="XFDnlzGBObcAwU8t6l0R-10" style="edgeStyle=orthogonalEdgeStyle;rounded=0;orthogonalLoop=1;jettySize=auto;html=1;exitX=1;exitY=0.5;exitDx=0;exitDy=0;" edge="1" parent="1" source="XFDnlzGBObcAwU8t6l0R-9" target="XFDnlzGBObcAwU8t6l0R-11">
          <mxGeometry relative="1" as="geometry">
            <mxPoint x="750" y="360" as="targetPoint" />
          </mxGeometry>
        </mxCell>
        <mxCell id="XFDnlzGBObcAwU8t6l0R-9" value="API Gateway" style="rounded=0;whiteSpace=wrap;html=1;" vertex="1" parent="1">
          <mxGeometry x="570" y="330" width="120" height="60" as="geometry" />
        </mxCell>
        <mxCell id="XFDnlzGBObcAwU8t6l0R-12" style="edgeStyle=orthogonalEdgeStyle;rounded=0;orthogonalLoop=1;jettySize=auto;html=1;exitX=1;exitY=0.5;exitDx=0;exitDy=0;" edge="1" parent="1" source="XFDnlzGBObcAwU8t6l0R-11">
          <mxGeometry relative="1" as="geometry">
            <mxPoint x="930" y="360" as="targetPoint" />
          </mxGeometry>
        </mxCell>
        <mxCell id="XFDnlzGBObcAwU8t6l0R-11" value="Serverless function" style="rounded=0;whiteSpace=wrap;html=1;" vertex="1" parent="1">
          <mxGeometry x="760" y="330" width="120" height="60" as="geometry" />
        </mxCell>
        <mxCell id="XFDnlzGBObcAwU8t6l0R-13" value="send email to peggy" style="whiteSpace=wrap;html=1;" vertex="1" parent="1">
          <mxGeometry x="930" y="330" width="120" height="60" as="geometry" />
        </mxCell>
        <mxCell id="XFDnlzGBObcAwU8t6l0R-16" style="edgeStyle=orthogonalEdgeStyle;rounded=0;orthogonalLoop=1;jettySize=auto;html=1;exitX=1;exitY=0.5;exitDx=0;exitDy=0;" edge="1" parent="1" source="XFDnlzGBObcAwU8t6l0R-15">
          <mxGeometry relative="1" as="geometry">
            <mxPoint x="570" y="440" as="targetPoint" />
          </mxGeometry>
        </mxCell>
        <mxCell id="XFDnlzGBObcAwU8t6l0R-15" value="access LinkedIn profile name" style="whiteSpace=wrap;html=1;" vertex="1" parent="1">
          <mxGeometry x="380" y="410" width="120" height="60" as="geometry" />
        </mxCell>
        <mxCell id="XFDnlzGBObcAwU8t6l0R-18" style="edgeStyle=orthogonalEdgeStyle;rounded=0;orthogonalLoop=1;jettySize=auto;html=1;exitX=1;exitY=0.5;exitDx=0;exitDy=0;" edge="1" parent="1" source="XFDnlzGBObcAwU8t6l0R-17">
          <mxGeometry relative="1" as="geometry">
            <mxPoint x="750" y="440" as="targetPoint" />
          </mxGeometry>
        </mxCell>
        <mxCell id="XFDnlzGBObcAwU8t6l0R-25" style="edgeStyle=orthogonalEdgeStyle;rounded=0;orthogonalLoop=1;jettySize=auto;html=1;exitX=0;exitY=0.75;exitDx=0;exitDy=0;entryX=0.5;entryY=0;entryDx=0;entryDy=0;" edge="1" parent="1" source="XFDnlzGBObcAwU8t6l0R-17" target="XFDnlzGBObcAwU8t6l0R-24">
          <mxGeometry relative="1" as="geometry" />
        </mxCell>
        <mxCell id="XFDnlzGBObcAwU8t6l0R-17" value="API Gateway" style="whiteSpace=wrap;html=1;" vertex="1" parent="1">
          <mxGeometry x="570" y="410" width="120" height="60" as="geometry" />
        </mxCell>
        <mxCell id="XFDnlzGBObcAwU8t6l0R-20" style="edgeStyle=orthogonalEdgeStyle;rounded=0;orthogonalLoop=1;jettySize=auto;html=1;exitX=1;exitY=0.5;exitDx=0;exitDy=0;" edge="1" parent="1" source="XFDnlzGBObcAwU8t6l0R-19">
          <mxGeometry relative="1" as="geometry">
            <mxPoint x="930" y="440" as="targetPoint" />
          </mxGeometry>
        </mxCell>
        <mxCell id="XFDnlzGBObcAwU8t6l0R-23" style="edgeStyle=orthogonalEdgeStyle;rounded=0;orthogonalLoop=1;jettySize=auto;html=1;exitX=0.25;exitY=1;exitDx=0;exitDy=0;entryX=0.075;entryY=1.017;entryDx=0;entryDy=0;entryPerimeter=0;" edge="1" parent="1" source="XFDnlzGBObcAwU8t6l0R-19" target="XFDnlzGBObcAwU8t6l0R-17">
          <mxGeometry relative="1" as="geometry" />
        </mxCell>
        <mxCell id="XFDnlzGBObcAwU8t6l0R-19" value="serverless function" style="whiteSpace=wrap;html=1;" vertex="1" parent="1">
          <mxGeometry x="760" y="410" width="120" height="60" as="geometry" />
        </mxCell>
        <mxCell id="XFDnlzGBObcAwU8t6l0R-22" style="edgeStyle=orthogonalEdgeStyle;rounded=0;orthogonalLoop=1;jettySize=auto;html=1;exitX=0.5;exitY=1;exitDx=0;exitDy=0;entryX=0.5;entryY=1;entryDx=0;entryDy=0;" edge="1" parent="1" source="XFDnlzGBObcAwU8t6l0R-21" target="XFDnlzGBObcAwU8t6l0R-19">
          <mxGeometry relative="1" as="geometry" />
        </mxCell>
        <mxCell id="XFDnlzGBObcAwU8t6l0R-21" value="DynamoDB" style="whiteSpace=wrap;html=1;" vertex="1" parent="1">
          <mxGeometry x="930" y="410" width="120" height="60" as="geometry" />
        </mxCell>
        <mxCell id="XFDnlzGBObcAwU8t6l0R-26" style="edgeStyle=orthogonalEdgeStyle;rounded=0;orthogonalLoop=1;jettySize=auto;html=1;exitX=0;exitY=0.5;exitDx=0;exitDy=0;" edge="1" parent="1" source="XFDnlzGBObcAwU8t6l0R-24" target="XFDnlzGBObcAwU8t6l0R-4">
          <mxGeometry relative="1" as="geometry" />
        </mxCell>
        <mxCell id="XFDnlzGBObcAwU8t6l0R-24" value="updated number of visits" style="whiteSpace=wrap;html=1;" vertex="1" parent="1">
          <mxGeometry x="470" y="560" width="120" height="60" as="geometry" />
        </mxCell>
      </root>
    </mxGraphModel>
  </diagram>
</mxfile>
